PathFileType	4	(X/Y/Z)	C:/Users/opensim2020/Desktop/walking_exp_matlab/subject02_walking13_straight_03.trc																																																																																																																									
DataRate	CameraRate	NumFrames	NumMarkers	Units	OrigDataRate	OrigDataStartFrame	OrigNumFrames																																																																																																																					
100	100	6	41	mm	100	1360	129																																																																																																																					
Frame#	Time	LFHD			RFHD			LBHD			RBHD			C7			T10			CLAV			STRN			RBAK			LSHO			LUPA			LELB			LFRM			LWRA			LWRB			LFIN			RSHO			RUPA			RELB			RFRM			RWRA			RWRB			RFIN			LASI			RASI			LPSI			RPSI			LTHI			LKNE			LTIB			LANK			LHEE			LTOE			RTHI			RKNE			RTIB			RANK			RHEE			RTOE			*39			*40		
		X1	Y1	Z1	X2	Y2	Z2	X3	Y3	Z3	X4	Y4	Z4	X5	Y5	Z5	X6	Y6	Z6	X7	Y7	Z7	X8	Y8	Z8	X9	Y9	Z9	X10	Y10	Z10	X11	Y11	Z11	X12	Y12	Z12	X13	Y13	Z13	X14	Y14	Z14	X15	Y15	Z15	X16	Y16	Z16	X17	Y17	Z17	X18	Y18	Z18	X19	Y19	Z19	X20	Y20	Z20	X21	Y21	Z21	X22	Y22	Z22	X23	Y23	Z23	X24	Y24	Z24	X25	Y25	Z25	X26	Y26	Z26	X27	Y27	Z27	X28	Y28	Z28	X29	Y29	Z29	X30	Y30	Z30	X31	Y31	Z31	X32	Y32	Z32	X33	Y33	Z33	X34	Y34	Z34	X35	Y35	Z35	X36	Y36	Z36	X37	Y37	Z37	X38	Y38	Z38	X39	Y39	Z39	X40	Y40	Z40	X41	Y41	Z41
																																																																																																																												
49	0.48	-32.43346	1735.44495	-1075.79163	-71.72826	1705.57019	-939.58856	-160.0321	1671.65686	-1125.22949	-211.13112	1641.41492	-994.39398	-239.02388	1519.10413	-1064.43762	-278.71234	1239.77698	-1066.96387	-95.86144	1457.72217	-1071.11975	-35.29425	1289.35901	-1063.32129	-292.47513	1338.09302	-1005.89948	-162.39464	1499.3584	-1242.38416	-179.74144	1298.6333	-1332.60217	-189.00226	1157.78455	-1343.9259	-186.31647	1026.07666	-1357.81433	-150.84943	895.36572	-1313.44849	-183.63371	902.40985	-1359.56885	-172.88646	836.12177	-1356.80786	-171.83325	1483.31384	-876.0293	-188.1907	1289.99414	-796.81628	-155.35361	1145.53784	-778.7901	-97.04031	1037.60181	-766.7085	-13.33807	933.35974	-791.21625	-58.88927	912.81995	-763.65125	-3.27448	867.68823	-759.37384	-32.30567	998.86646	-1199.1106	-50.28843	963.68848	-946.69122	-249.62117	1029.15686	-1131.74536	-262.19028	1019.8689	-1017.94122	-53.90958	686.1842	-1263.07739	-64.93256	481.71713	-1235.85449	-115.5061	292.61334	-1246.34631	-113.80307	70.04145	-1212.46704	-154.9641	41.43198	-1165.9718	42.14706	36.1293	-1210.72668	-109.25092	655.76202	-879.66016	-94.46926	461.74686	-890.57825	-246.72357	364.86899	-906.34857	-392.4805	248.03204	-956.59094	-438.29486	230.16565	-1025.75012	-356.97888	96.70436	-914.19086	-151.05238	1800.71265	-1009.02087	2845.15283	1034.297	-3360.34375
50	0.49	-19.02984	1737.00195	-1075.98169	-58.95734	1707.01953	-939.93195	-146.48495	1673.38171	-1125.78613	-197.71925	1643.00305	-995.10309	-225.47128	1520.97986	-1065.672	-265.96085	1241.75635	-1068.68176	-82.74818	1459.27917	-1071.47595	-22.45792	1290.7522	-1063.68933	-280.85074	1340.26563	-1007.92529	-147.77814	1501.62903	-1243.02625	-161.12805	1301.47119	-1335.05322	-167.34627	1160.5	-1348.18286	-160.39816	1028.77649	-1362.02124	-120.45167	899.79303	-1318.32422	-153.73239	905.5611	-1364.30396	-139.19278	840.16321	-1362.3739	-159.83981	1484.99365	-877.02765	-177.03404	1291.73669	-798.14026	-146.73833	1146.66296	-780.98285	-91.12919	1037.46472	-768.46545	-9.47183	930.98169	-792.77911	-56.08932	911.6535	-764.86377	-2.06516	864.45898	-760.94598	-20.12121	1000.20459	-1199.6001	-38.51788	967.38617	-945.81329	-237.20036	1030.71887	-1133.42883	-250.02443	1021.80579	-1020.12573	-47.10017	685.7981	-1263.51221	-61.48866	481.31708	-1236.49646	-113.05767	292.4567	-1246.9502	-113.72684	70.10117	-1212.41968	-155.01291	41.55214	-1165.92908	42.20474	36.01653	-1210.71094	-90.20886	658.48248	-881.00995	-69.63589	465.6424	-892.1922	-219.50392	366.37439	-909.12567	-362.21359	245.03151	-959.36798	-408.62677	225.28273	-1028.25671	-321.01065	95.77109	-916.26501	-137.68312	1802.26624	-1009.36743	2846.05273	1034.2251	-3356.71777
51	0.5	-5.69187	1738.41687	-1075.94946	-45.87361	1708.25159	-939.61847	-133.18033	1675.08948	-1126.99707	-184.61269	1644.51038	-995.82849	-212.35257	1522.7207	-1066.81116	-253.20529	1243.51379	-1070.45166	-69.64278	1460.70654	-1071.76404	-9.5849	1291.99902	-1063.97791	-267.33234	1341.59033	-1009.79663	-133.26544	1503.84863	-1243.45618	-142.52779	1304.36218	-1337.39185	-145.59042	1163.34546	-1352.21094	-134.19522	1031.84973	-1366.5127	-89.8512	905.06061	-1323.62195	-123.67771	908.80676	-1368.76331	-105.39259	844.92566	-1367.8772	-147.59793	1486.43018	-877.77777	-166.62479	1293.19348	-799.51093	-137.8485	1147.68457	-782.87836	-84.87731	1037.40051	-769.86542	-6.61521	928.54053	-793.91907	-53.30414	910.59668	-765.92474	-0.6934	861.40277	-762.48004	-8.03905	1001.31342	-1200.146	-27.08151	971.06818	-945.30804	-224.69214	1032.09729	-1135.00098	-237.47508	1023.43109	-1022.1759	-40.36362	685.48724	-1263.90833	-58.21945	480.98755	-1236.99915	-111.0044	292.46283	-1247.21643	-113.59789	70.21257	-1212.27136	-154.95708	41.71172	-1165.79907	42.37298	35.90854	-1210.66797	-71.56288	661.13751	-882.08704	-45.19237	469.95483	-893.64673	-192.12987	366.64075	-911.44604	-331.33615	240.73528	-961.89008	-377.77841	219.00015	-1030.51794	-283.4812	93.88289	-918.84802	-124.65266	1803.70154	-1009.99957	2846.00391	1034.16797	-3356.91431
52	0.51	7.67239	1739.50024	-1076.06396	-33.00671	1709.56641	-940.0036	-119.50842	1676.11816	-1126.8645	-171.54066	1645.58508	-996.47699	-198.90358	1523.94885	-1067.80896	-240.40529	1245.03198	-1072.20911	-56.53857	1461.922	-1071.9978	3.24758	1293.06226	-1064.30884	-254.6411	1342.87561	-1011.67273	-118.96014	1505.86108	-1243.78418	-123.94455	1307.28003	-1339.53235	-123.70268	1166.3075	-1356.32312	-107.79279	1034.94775	-1370.71008	-59.1795	910.23907	-1328.24524	-93.22154	912.73553	-1373.43066	-71.58688	850.03162	-1373.18005	-135.16005	1487.49963	-878.58765	-156.13635	1294.23486	-801.03418	-129.25954	1148.59375	-784.61731	-79.2107	1036.9043	-771.23663	-3.66342	925.87677	-794.95465	-50.81356	909.32892	-766.8382	0.46785	858.35291	-764.02728	4.00878	1002.13812	-1200.83618	-15.55995	974.35394	-945.51428	-212.18555	1033.19263	-1136.46326	-224.7415	1024.85071	-1023.82806	-33.97369	685.08551	-1264.34058	-55.18127	480.86096	-1237.38513	-109.60765	292.6832	-1247.03394	-113.47221	70.35246	-1212.08801	-154.73363	41.89666	-1165.68225	42.42131	35.4304	-1210.6178	-53.05506	663.83698	-883.02051	-21.65634	473.42929	-895.0918	-164.6732	365.65918	-913.3623	-299.7337	235.09711	-964.2984	-346.0325	211.17496	-1032.63965	-244.6301	91.07059	-921.6239	-111.26786	1804.86755	-1010.20239	2845.98779	1034.19055	-3356.99976
53	0.52	20.9775	1740.40698	-1076.07117	-20.32271	1710.05127	-940.43738	-106.04521	1677.00867	-1127.18103	-158.87482	1646.63965	-997.25183	-185.7697	1525.09753	-1068.66125	-227.66759	1246.36206	-1073.8855	-43.37815	1462.90869	-1072.12585	16.22953	1293.93347	-1064.74609	-241.98332	1343.91492	-1013.50464	-104.81322	1507.59436	-1243.94238	-105.41078	1310.13562	-1341.6095	-101.8366	1169.22473	-1359.84839	-81.45039	1038.63623	-1374.90198	-28.44297	915.78894	-1332.8291	-62.70107	916.88379	-1377.87964	-37.86701	855.54108	-1378.34302	-123.04195	1488.17786	-879.32227	-145.61218	1295.57678	-802.10046	-120.82914	1149.29065	-786.10413	-73.06336	1036.75916	-772.49408	-0.71295	923.34052	-796.33594	-47.82817	908.44	-767.63409	1.37641	855.39569	-765.58215	16.00194	1002.67688	-1201.76453	-2.97862	977.86725	-946.12201	-199.60083	1034.0658	-1137.95459	-211.23703	1025.82678	-1025.31299	-27.60125	684.59296	-1264.79968	-52.3646	480.78586	-1237.70715	-109.04568	293.49689	-1246.84546	-113.35361	70.72694	-1211.93311	-154.69531	42.23141	-1165.46631	42.71424	35.21588	-1210.59387	-34.85186	666.5871	-883.53693	2.11488	476.67093	-896.59735	-137.18196	363.5473	-915.07172	-267.19574	228.10574	-966.61975	-313.36246	202.03561	-1034.74902	-204.6692	87.57726	-924.44	-98.31843	1805.77527	-1010.58875	2845.18433	1034.18005	-3360.2627
54	0.53	34.23705	1741.0498	-1076.05286	-7.23794	1710.97107	-940.21179	-92.64562	1677.5863	-1127.495	-145.52844	1646.83862	-997.19952	-172.49376	1525.8761	-1069.47375	-214.86272	1247.32043	-1075.58667	-30.24137	1463.62085	-1072.19397	29.17055	1294.58057	-1065.1947	-229.782	1344.80908	-1015.25928	-90.70414	1509.10767	-1244.1178	-86.98837	1312.79944	-1343.41919	-79.91103	1172.11926	-1363.4458	-55.0987	1042.20142	-1378.50623	2.24109	921.47943	-1337.2196	-32.10175	921.26569	-1382.18384	-4.34786	861.41632	-1383.30164	-110.75394	1488.80774	-879.88751	-135.2592	1296.08496	-803.00165	-112.38208	1149.77002	-787.4328	-67.35321	1036.28442	-773.56189	2.0015	920.89508	-798.00885	-44.97677	907.61792	-768.00885	2.74325	852.52637	-767.03082	27.89915	1002.85846	-1202.90833	9.69215	980.52582	-947.4173	-186.92084	1034.67834	-1138.98218	-198.58771	1026.96204	-1026.10852	-21.17636	683.87469	-1265.12878	-49.64061	480.70197	-1238.03467	-108.7551	294.05386	-1246.36328	-113.22064	70.86713	-1211.63635	-154.58594	42.44537	-1165.10254	42.96579	35.00151	-1210.59326	-16.64769	669.33209	-883.76215	25.47869	479.63321	-897.6814	-109.5365	360.54449	-916.61444	-233.82631	219.96007	-968.77039	-279.15063	191.52417	-1036.8186	-163.7318	83.54527	-927.09351	-85.05331	1806.35828	-1010.75903	2845.88574	1034.26367	-3356.97241
